<svg xmlns="http://www.w3.org/2000/svg" xmlns:xlink="http://www.w3.org/1999/xlink" viewBox="0 0 799.49 838.19"><defs><style>.cls-1{fill:url(#linear-gradient);}.cls-2{fill:url(#linear-gradient-4);}</style><linearGradient id="linear-gradient" y1="302.09" x2="602.49" y2="302.09" gradientUnits="userSpaceOnUse"><stop offset="0" stop-color="#16ecfd"/><stop offset="0.08" stop-color="#16e5fc"/><stop offset="0.09" stop-color="#16e3fc"/><stop offset="0.36" stop-color="#14a2f3"/><stop offset="0.59" stop-color="#1372ed"/><stop offset="0.76" stop-color="#1255e9"/><stop offset="0.86" stop-color="#124ae8"/></linearGradient><linearGradient id="linear-gradient-4" x1="382.86" y1="450.24" x2="697.25" y2="676.63" gradientUnits="userSpaceOnUse"><stop offset="0.08" stop-color="#16e5fc"/><stop offset="0.33" stop-color="#14a0f3"/><stop offset="0.5" stop-color="#1387f0"/><stop offset="0.83" stop-color="#125bea"/><stop offset="1" stop-color="#124ae8"/></linearGradient></defs><g id="Layer_2" data-name="Layer 2"><g id="Layer_1-2" data-name="Layer 1"><path class="cls-1" d="M522.84,50.84Q456.73,0,357.6,0A344.47,344.47,0,0,0,197.87,38.56q-75,38.57-126.27,107.61T5.08,302.52A365.36,365.36,0,0,0,0,362.68q0,71.19,31.35,126.26t88.56,85.16a252.52,252.52,0,0,0,64.71,23.27,2.87,2.87,0,0,1,.36-1,.81.81,0,0,1,.23-.22,19.25,19.25,0,0,1,.68-4.33c.37-1.51.65-3,.94-4.54s.58-3.21.95-4.79c.19-.81.59-1.6.82-2.42a.61.61,0,0,1-.24-.7,31.59,31.59,0,0,0,1.13-5.78c.27-1.93,1-3.77,1.14-5.72a.71.71,0,0,1,.25-.49.76.76,0,0,1,.18-.62c0-.22.05-.44.09-.67s.19-.64.27-1c.17-.69.3-1.38.41-2.08a9,9,0,0,1,.47-2l.12-.32a2.3,2.3,0,0,1,.1-.63,1,1,0,0,1,0-.17,2.63,2.63,0,0,1,.13-.57c0-.06,0-.13,0-.19a19.25,19.25,0,0,1,.82-3.59c0-.11,0-.22.05-.33,0-.28,0-.55.08-.83a.9.9,0,0,1,.08-.28c0-.22,0-.44.1-.66a5.72,5.72,0,0,1,.32-1.28,2.88,2.88,0,0,0,.28-1.08.65.65,0,0,1,.21-.47,1.59,1.59,0,0,1,.08-.39,1.36,1.36,0,0,1,0-.2c.07-.23.06-.47.12-.69a3.83,3.83,0,0,0,.19-.72,14,14,0,0,1,.24-1.44c.23-1,.44-2.06.65-3.09.1-.47.11-1,.21-1.44a10.12,10.12,0,0,1,.43-1.08c.15-.46.14-.95.26-1.42s.2-1.12.35-1.68a.68.68,0,0,1,.15-.28v0c.26-1.21.5-2.42.74-3.63.12-.61.31-1.19.44-1.8a8.66,8.66,0,0,0,.12-.89c.05-.28.14-.54.2-.81a.52.52,0,0,1,.16-.29c0-.32.16-.63.23-1a7.81,7.81,0,0,1,.28-2.16c.11-.35.19-.7.27-1a9.74,9.74,0,0,1,.37-1,7.92,7.92,0,0,0,.09-1c.07-.39.2-.76.29-1.14a4.47,4.47,0,0,0,.08-.89,7.12,7.12,0,0,1,.25-1.11.62.62,0,0,1,.27-.37,6.71,6.71,0,0,1,.34-1.66c.16-.55.19-1.1.31-1.65s.35-1.09.5-1.64.25-1.22.36-1.84c.25-1.3.55-2.56.86-3.84s.32-2.36.6-3.52a.64.64,0,0,1,.2-.33c.1-.58.23-1.16.38-1.73s.1-1.06.21-1.6c.21-1,.54-2.1.8-3.14.14-.58.36-1.15.5-1.73s.17-.95.27-1.43.14-1.09.25-1.63.27-1,.39-1.46a.75.75,0,0,1,.06-.13,2.93,2.93,0,0,1,.35-1.19l.06-.19h0a3.37,3.37,0,0,1,.21-1.47c.14-.56.41-1.1.51-1.67s0-1.22.19-1.82c.1-.44.33-.83.47-1.26,0,0,0,0,0-.06a1.52,1.52,0,0,1,0-.21,126.41,126.41,0,0,1-46.68-29.94q-39.39-39.81-39.4-108.46,0-17.79,4.24-44.91,10.17-57.61,40.25-101.69T241.93,133q44.49-23.71,96.18-23.73,48.3,0,81.35,20.76t46.6,61.44H602.49Q588.93,101.7,522.84,50.84Z"/><path class="cls-1" d="M430.49,409.34q-28,40.68-68.64,61.86-6.8,3.54-13.83,6.48c-3.91,1.66-21.91,100.66-14.7,114.79a345.29,345.29,0,0,0,104.37-42Q521.15,500,566.92,409.34Z"/><path class="cls-1" d="M319.43,552.34a1.72,1.72,0,0,1,0-.24,37.41,37.41,0,0,1,.69-4c.18-1.47.13-2.91.41-4.38.57-3,1-5.92,1.51-8.88a60,60,0,0,1,2.23-9.16,27.25,27.25,0,0,0,1.46-4.18c.17-.94.24-1.82.47-2.7a1.35,1.35,0,0,1-.07-.36,9.35,9.35,0,0,1,.69-2.8,15,15,0,0,0,.71-3.88,27.55,27.55,0,0,1,.18-3.14,12.76,12.76,0,0,1,1.13-3.15c1.82-4.11,3.22-8.39,4.75-12.61a1,1,0,0,1,.05-.34c.27-.76.65-1.47,1-2.22a12,12,0,0,0,.54-2.2,18.11,18.11,0,0,1,1.21-3.87,193.67,193.67,0,0,1-66.84,11.46q-30.57,0-55.36-8.1l-.1.17,0,.08.06.06a.71.71,0,0,1,.11.84.66.66,0,0,1-.64.32,1.11,1.11,0,0,1,0,.19l0,.1-.09.22s0,0,0,0,0,0,0,0l0,.07,0-.06a.57.57,0,0,1-.16.27l0,0a.85.85,0,0,1,.11.35,1.44,1.44,0,0,1-.14.62.15.15,0,0,0,0,.07c0,.22,0,.43-.06.64a.53.53,0,0,1-.19.31c-.07.41-.14.83-.22,1.24s-.27.89-.37,1.36a7,7,0,0,1-.31,1,.74.74,0,0,1-.17.62c.09-.1,0,.08,0,.12s-.07.24-.09.36a3.49,3.49,0,0,0,0,.79,5.44,5.44,0,0,1-.08,1.66,4.11,4.11,0,0,1-.88,1.51l0,.06a.58.58,0,0,1,.1.35,2.36,2.36,0,0,1-.12.54v.08c0,.07,0,.13,0,.2a.75.75,0,0,1,.05.26c0,.49-.28.95-.34,1.45s-.07,1-.19,1.54-.26,1-.34,1.56a11.09,11.09,0,0,1-.2,1.52.79.79,0,0,1-.13.26c-.08.19-.11.4-.18.6s-.15.47-.23.71a5,5,0,0,0-.24,1.38,12.13,12.13,0,0,1-.07,1.48,6.29,6.29,0,0,1-.4,1.59,1,1,0,0,1-.16.25.72.72,0,0,1,0,.61,4.3,4.3,0,0,0-.22,1.08c-.07.44-.18.87-.21,1.32s0,1-.06,1.48-.22.9-.3,1.36a.61.61,0,0,1-.45.45.07.07,0,0,1,0,.06,1.18,1.18,0,0,0-.11.19s-.06.12-.07.14a3.47,3.47,0,0,0-.13.46,1.06,1.06,0,0,0,0,.19,1.15,1.15,0,0,1,0,.16c0,.2,0,.4,0,.6a4.07,4.07,0,0,1-.11,1.3,2.62,2.62,0,0,1-.27.59c0,.08-.09.15-.14.23l0,0,0,.09a.54.54,0,0,1,0,.11.65.65,0,0,1,.08.79,3.24,3.24,0,0,0-.25,1.16c-.11.56-.24,1.11-.34,1.66-.22,1.14-.33,2.29-.48,3.44a.65.65,0,0,1-.05.2.61.61,0,0,1-.14.68h0s-.05.28,0,.14a3.62,3.62,0,0,0,0,.46,11,11,0,0,1-.14,1.52c-.07.48-.06,1-.11,1.44s-.25.91-.34,1.37a.54.54,0,0,1-.17.29,10.17,10.17,0,0,1-.48,1.86,16.15,16.15,0,0,0-.22,2.51,10.34,10.34,0,0,1-.52,2.28.61.61,0,0,1,.21.51,23.7,23.7,0,0,1-.88,5c-.4,1.73-.49,3.52-.8,5.26a.89.89,0,0,1-.05.13s0,.05,0,.07c0,.93-.07,1.86-.16,2.78a1.5,1.5,0,0,1,0,.89,12.26,12.26,0,0,0-.4,3,5.88,5.88,0,0,1-.21,1c-.07.69-.14,1.37-.19,2.06-.09,1.38-.19,2.76-.39,4.14-.08.6-.21,1.2-.33,1.79-.09.79-.3,1.59-.43,2.48,0,.12,0,.24-.05.36-.28,2.7-.19,5.42-.65,8.1a31.47,31.47,0,0,0-.51,4.43c0,1.47-.05,2.94-.11,4.41-.12,2.88-.44,5.74-.58,8.62a326.62,326.62,0,0,0,54.52,4.41,363.62,363.62,0,0,0,66.75-6.06c-.76-1.14-.77-3.15-.72-4.74a1,1,0,0,1-.18-.44,27.64,27.64,0,0,1-.21-5.82,1.16,1.16,0,0,1-.18-.37c-.64-2.26-.27-4.81-.32-7.13A49.82,49.82,0,0,1,317,572c.35-2.59.35-5.18.65-7.77.14-1.21.34-2.41.59-3.61.06-.28.14-.57.22-.86a1.34,1.34,0,0,1-.18-.51,12,12,0,0,1,.24-4.27C318.76,554.06,319.18,553.22,319.43,552.34Zm-106.12-49.1v.37a.69.69,0,0,1-1.38,0c0-1.85,0-3.71,0-5.57a.69.69,0,0,1,1.38,0c0,1.55,0,3.1,0,4.66,0,0,0,.06,0,.1A3.17,3.17,0,0,1,213.31,503.24Z"/><path class="cls-2" d="M268.6,380.17q51.27-69,126.27-107.61A344.47,344.47,0,0,1,554.6,234q99.14,0,165.24,50.84t79.65,140.67H663.06q-13.56-40.68-46.6-61.44t-81.35-20.76q-51.71,0-96.18,23.73t-74.57,67.79q-30.09,44.07-40.25,101.69-4.26,27.12-4.24,44.91,0,68.64,39.4,108.46t107.2,39.83q48.3,0,89-21.18t68.63-61.86H760.51q-45.75,90.68-129.22,141.09T448.67,838.19q-74.57,0-131.76-30.09t-88.56-85.16Q197,667.88,197,596.68a365.36,365.36,0,0,1,5.08-60.16Q217.33,449.25,268.6,380.17Z"/></g></g></svg>